<svg xmlns="http://www.w3.org/2000/svg" width="19.906" height="20" viewBox="0 0 19.906 20">
  <defs>
    <style>
      .cls-1 {
        fill: #fff;
        fill-rule: evenodd;
      }
    </style>
  </defs>
  <path id="Forma_1" data-name="Forma 1" class="cls-1" d="M672.757,7147h-8.919a5.515,5.515,0,0,0-5.493,5.52v8.96a5.515,5.515,0,0,0,5.493,5.52h8.919a5.515,5.515,0,0,0,5.493-5.52v-8.96A5.515,5.515,0,0,0,672.757,7147Zm3.727,14.48a3.741,3.741,0,0,1-3.727,3.75h-8.919a3.741,3.741,0,0,1-3.727-3.75v-8.96a3.741,3.741,0,0,1,3.727-3.75h8.919a3.741,3.741,0,0,1,3.727,3.75v8.96h0Zm-8.187-9.63a5.15,5.15,0,1,0,5.129,5.15A5.145,5.145,0,0,0,668.3,7151.85Zm0,8.53a3.38,3.38,0,1,1,3.363-3.38A3.377,3.377,0,0,1,668.3,7160.38Zm5.344-10.04a1.3,1.3,0,1,0,.916.38A1.3,1.3,0,0,0,673.641,7150.34Z" transform="translate(-658.344 -7147)"/>
</svg>
