<svg xmlns="http://www.w3.org/2000/svg" width="9.968" height="20" viewBox="0 0 9.968 20">
  <defs>
    <style>
      .cls-1 {
        fill: #fff;
        fill-rule: evenodd;
      }
    </style>
  </defs>
  <path id="Forma_1" data-name="Forma 1" class="cls-1" d="M574.6,7151.3c0-.12.017-0.39,0.052-0.8a3.023,3.023,0,0,1,.467-1.3,3.685,3.685,0,0,1,1.337-1.22,5.47,5.47,0,0,1,2.665-.53h3.271v3.6H580a0.963,0.963,0,0,0-.658.27,0.7,0.7,0,0,0-.3.5v2.24h3.351c-0.035.44-.074,0.86-0.118,1.27l-0.133,1.09c-0.052.37-.107,0.71-0.159,1.02h-2.965v9.99H574.6v-9.99h-2.154v-3.38H574.6v-2.76Z" transform="translate(-572.438 -7147.44)"/>
</svg>
