<svg xmlns="http://www.w3.org/2000/svg" width="16" height="16" viewBox="0 0 16 16">
  <defs>
    <style>
      .cls-1 {
        fill-rule: evenodd;
      }
    </style>
  </defs>
  <path id="Forma_1_copy_14" data-name="Forma 1 copy 14" class="cls-1" d="M282.363,174.623l-3.3-3.3a6.756,6.756,0,0,0,.659-6.466,6.623,6.623,0,0,0-3.606-3.606,6.743,6.743,0,0,0-5.26,0,6.623,6.623,0,0,0-3.606,3.606,6.741,6.741,0,0,0,0,5.259,6.623,6.623,0,0,0,3.606,3.606,6.76,6.76,0,0,0,6.467-.658l3.3,3.288a1.141,1.141,0,0,0,.865.365A1.23,1.23,0,0,0,282.363,174.623Zm-5.832-4.092a4.294,4.294,0,1,1,1.265-3.044A4.147,4.147,0,0,1,276.531,170.531Z" transform="translate(-266.719 -160.719)"/>
</svg>
