<svg xmlns="http://www.w3.org/2000/svg" width="27" height="30" viewBox="0 0 27 30">
  <defs>
    <style>
      .cls-1 {
        fill: #fff;
        fill-rule: evenodd;
      }
    </style>
  </defs>
  <path id="Forma_1" data-name="Forma 1" class="cls-1" d="M837.675,4541.23H842.4v4.09a0.667,0.667,0,0,0,.19.49,0.644,0.644,0,0,0,.485.19H846.6a0.666,0.666,0,0,0,.675-0.68v-4.09h10.652a0.666,0.666,0,0,0,.675-0.68v-2.73a0.667,0.667,0,0,0-.19-0.49,0.643,0.643,0,0,0-.485-0.19H847.272v-2.52h7.172a9.426,9.426,0,0,0,6.887-2.6,9.769,9.769,0,0,0,0-13.42,9.467,9.467,0,0,0-6.887-2.6H843.075a0.644,0.644,0,0,0-.485.19,0.667,0.667,0,0,0-.19.49v13.4h-4.725a0.625,0.625,0,0,0-.485.21,0.653,0.653,0,0,0-.19.47v3.18a0.667,0.667,0,0,0,.19.49,0.644,0.644,0,0,0,.485.19H842.4v2.52h-4.725a0.644,0.644,0,0,0-.485.19,0.667,0.667,0,0,0-.19.49v2.73a0.644,0.644,0,0,0,.19.48A0.652,0.652,0,0,0,837.675,4541.23Zm9.6-20.69h6.751a4.981,4.981,0,0,1,3.606,1.32,5.026,5.026,0,0,1,0,6.9,4.981,4.981,0,0,1-3.606,1.32h-6.751v-9.54Z" transform="translate(-837 -4516)"/>
</svg>
