<svg xmlns="http://www.w3.org/2000/svg" width="30.001" height="26" viewBox="0 0 30.001 26">
  <defs>
    <style>
      .cls-1 {
        fill: #fff;
        fill-rule: evenodd;
      }
    </style>
  </defs>
  <path id="Forma_1_copy_9" data-name="Forma 1 copy 9" class="cls-1" d="M990.119,4535.1h12.631a0.892,0.892,0,0,0,.9-0.88v-6.19a0.892,0.892,0,0,0-.9-0.88H990.119a0.889,0.889,0,0,0-.9.88v6.19A0.889,0.889,0,0,0,990.119,4535.1Zm28.2-7.95h-12.63a0.886,0.886,0,0,0-.9.88v6.19a0.886,0.886,0,0,0,.9.88h12.63a0.886,0.886,0,0,0,.9-0.88v-6.19A0.886,0.886,0,0,0,1018.32,4527.15Zm-20.609-1.07h12.629a0.892,0.892,0,0,0,.9-0.88v-6.19a0.894,0.894,0,0,0-.9-0.89H997.711a0.9,0.9,0,0,0-.9.89v6.19A0.894,0.894,0,0,0,997.711,4526.08Zm-0.64,10.97v6.19a0.888,0.888,0,0,0,.9.88H1010.6a0.886,0.886,0,0,0,.9-0.88v-6.19a0.886,0.886,0,0,0-.9-0.88H997.972A0.888,0.888,0,0,0,997.071,4537.05Z" transform="translate(-989.219 -4518.13)"/>
</svg>
