<svg xmlns="http://www.w3.org/2000/svg" width="19.906" height="11" viewBox="0 0 19.906 11">
  <defs>
    <style>
      .cls-1 {
        fill: #fff;
        fill-rule: evenodd;
      }
    </style>
  </defs>
  <path id="Forma_1" data-name="Forma 1" class="cls-1" d="M541.048,7161.81a0.875,0.875,0,0,0-.067-0.12,9.789,9.789,0,0,0-1.979-2.22l-0.021-.02-0.01-.01-0.011-.01h-0.01a11.778,11.778,0,0,1-.839-0.83,0.751,0.751,0,0,1-.146-0.81,7.458,7.458,0,0,1,.933-1.32c0.283-.35.508-0.64,0.673-0.85,1.2-1.54,1.714-2.52,1.555-2.95l-0.062-.1a0.613,0.613,0,0,0-.321-0.17,1.584,1.584,0,0,0-.664-0.02l-2.984.02a0.357,0.357,0,0,0-.207,0l-0.135.03-0.052.03-0.041.03a0.41,0.41,0,0,0-.114.1,0.652,0.652,0,0,0-.1.18,16.477,16.477,0,0,1-1.109,2.26q-0.384.615-.7,1.08a5.193,5.193,0,0,1-.539.67,4.736,4.736,0,0,1-.394.35,0.442,0.442,0,0,1-.269.11,1.324,1.324,0,0,0-.176-0.04,0.708,0.708,0,0,1-.233-0.25,1.014,1.014,0,0,1-.119-0.39c-0.021-.16-0.033-0.29-0.037-0.41s0-.27,0-0.48,0.011-.35.011-0.42c0-.26,0-0.53.015-0.83s0.019-.53.026-0.71,0.011-.36.011-0.55a2.308,2.308,0,0,0-.037-0.46,1.676,1.676,0,0,0-.108-0.32,0.588,0.588,0,0,0-.213-0.24,1.319,1.319,0,0,0-.347-0.14,7.39,7.39,0,0,0-1.4-.13,6.874,6.874,0,0,0-2.477.25,1.271,1.271,0,0,0-.393.3c-0.125.14-.142,0.22-0.052,0.24a1.274,1.274,0,0,1,.881.43l0.062,0.12a1.918,1.918,0,0,1,.145.46,4.656,4.656,0,0,1,.093.73,7.521,7.521,0,0,1,0,1.26q-0.051.525-.1,0.81a1.685,1.685,0,0,1-.14.48,2.217,2.217,0,0,1-.125.22c-0.02.02-.038,0.04-0.051,0.05a0.887,0.887,0,0,1-.28.05,0.7,0.7,0,0,1-.352-0.14,2.977,2.977,0,0,1-.431-0.39,4.644,4.644,0,0,1-.5-0.69,11.156,11.156,0,0,1-.58-1.04l-0.166-.29c-0.1-.19-0.245-0.46-0.425-0.82s-0.338-.71-0.477-1.04a0.648,0.648,0,0,0-.248-0.32l-0.052-.03a0.6,0.6,0,0,0-.166-0.09,0.955,0.955,0,0,0-.238-0.06l-2.84.02a0.723,0.723,0,0,0-.59.19l-0.042.06a0.3,0.3,0,0,0-.031.16,0.817,0.817,0,0,0,.062.27q0.622,1.41,1.353,2.73c0.487,0.88.91,1.58,1.269,2.12s0.725,1.04,1.1,1.52,0.62,0.77.741,0.91,0.216,0.23.285,0.3l0.259,0.24a6.878,6.878,0,0,0,.731.58q0.482,0.33,1.067.66a5.5,5.5,0,0,0,1.363.53,4.686,4.686,0,0,0,1.513.17h1.192a0.825,0.825,0,0,0,.549-0.22l0.041-.05a0.608,0.608,0,0,0,.078-0.19,0.939,0.939,0,0,0,.036-0.27,3.2,3.2,0,0,1,.067-0.78,1.9,1.9,0,0,1,.177-0.52,1.244,1.244,0,0,1,.222-0.3,1.148,1.148,0,0,1,.177-0.15,0.523,0.523,0,0,0,.082-0.03,0.7,0.7,0,0,1,.586.15,3.557,3.557,0,0,1,.632.59q0.3,0.345.71,0.78a5.2,5.2,0,0,0,.725.64l0.207,0.12a2.791,2.791,0,0,0,.539.22,1.2,1.2,0,0,0,.581.05l2.652-.04a1.165,1.165,0,0,0,.612-0.13,0.485,0.485,0,0,0,.259-0.27,0.746,0.746,0,0,0,0-.34A1.2,1.2,0,0,0,541.048,7161.81Z" transform="translate(-521.25 -7151.88)"/>
</svg>
