<svg xmlns="http://www.w3.org/2000/svg" width="19.906" height="16" viewBox="0 0 19.906 16">
  <defs>
    <style>
      .cls-1 {
        fill: #fff;
        fill-rule: evenodd;
      }
    </style>
  </defs>
  <path class="cls-1" d="M633.292,7150.85a8.07,8.07,0,0,1-.962.34,4.125,4.125,0,0,0,.866-1.5,0.308,0.308,0,0,0-.106-0.34,0.321,0.321,0,0,0-.363-0.02,7.828,7.828,0,0,1-2.24.87,4.307,4.307,0,0,0-2.991-1.2,4.237,4.237,0,0,0-4.273,4.19,4.3,4.3,0,0,0,.035.55,11.061,11.061,0,0,1-7.508-3.91,0.324,0.324,0,0,0-.274-0.12,0.331,0.331,0,0,0-.253.16,4.1,4.1,0,0,0-.578,2.11,4.147,4.147,0,0,0,1.017,2.72,3.932,3.932,0,0,1-.572-0.26,0.324,0.324,0,0,0-.316.01,0.3,0.3,0,0,0-.161.26c0,0.02,0,.04,0,0.06a4.2,4.2,0,0,0,2.092,3.61c-0.109-.01-0.217-0.03-0.325-0.05a0.336,0.336,0,0,0-.3.1,0.315,0.315,0,0,0-.065.31,4.246,4.246,0,0,0,3.13,2.81,7.688,7.688,0,0,1-4.041,1.13c-0.3,0-.607-0.02-0.9-0.05a0.32,0.32,0,0,0-.34.21,0.314,0.314,0,0,0,.129.37,11.707,11.707,0,0,0,6.232,1.79,11.165,11.165,0,0,0,8.588-3.7,11.636,11.636,0,0,0,2.977-7.66c0-.11,0-0.23,0-0.34a8.159,8.159,0,0,0,1.911-1.99A0.315,0.315,0,0,0,633.292,7150.85Z" transform="translate(-613.844 -7149)"/>
</svg>
