<svg xmlns="http://www.w3.org/2000/svg" width="30" height="29" viewBox="0 0 30 29">
  <defs>
    <style>
      .cls-1 {
        fill: #fff;
        fill-rule: evenodd;
      }
    </style>
  </defs>
  <path id="Forma_1" data-name="Forma 1" class="cls-1" d="M1175.19,4532.36c3.71,0,6.72-3.44,6.72-7.68,0-5.88-3.01-7.68-6.72-7.68s-6.73,1.8-6.73,7.68C1168.46,4528.92,1171.47,4532.36,1175.19,4532.36Zm14.85,11.31-3.39-7.46a1.685,1.685,0,0,0-.77-0.79l-5.27-2.68a0.338,0.338,0,0,0-.36.03,8.475,8.475,0,0,1-10.13,0,0.335,0.335,0,0,0-.36-0.03l-5.26,2.68a1.64,1.64,0,0,0-.77.79l-3.4,7.46a1.647,1.647,0,0,0,.13,1.58,1.719,1.719,0,0,0,1.43.75h26.6a1.688,1.688,0,0,0,1.42-.75A1.621,1.621,0,0,0,1190.04,4543.67Z" transform="translate(-1160.19 -4517)"/>
</svg>
