<svg xmlns="http://www.w3.org/2000/svg" width="16" height="12" viewBox="0 0 16 12">
  <defs>
    <style>
      .cls-1 {
        fill: #269b39;
        fill-rule: evenodd;
      }
    </style>
  </defs>
  <path id="Forma_1_copy_15" data-name="Forma 1 copy 15" class="cls-1" d="M478.536,90.7q0.3,0.2,1.83,1.215t2.339,1.556c0.06,0.04.186,0.126,0.38,0.26s0.354,0.242.482,0.324,0.283,0.175.464,0.277a2.806,2.806,0,0,0,.513.23,1.479,1.479,0,0,0,.447.077h0.018a1.468,1.468,0,0,0,.446-0.077,2.784,2.784,0,0,0,.514-0.23q0.272-.154.464-0.277t0.482-.324c0.194-.134.32-0.22,0.38-0.26l4.178-2.77a4.135,4.135,0,0,0,1.089-1.049A2.182,2.182,0,0,0,493,88.362a1.277,1.277,0,0,0-.424-0.963,1.413,1.413,0,0,0-1-.4H478.428a1.3,1.3,0,0,0-1.058.443A1.67,1.67,0,0,0,477,88.55a1.943,1.943,0,0,0,.491,1.164A4.334,4.334,0,0,0,478.536,90.7Zm13.571,0.912q-2.928,1.893-4.446,2.941-0.51.358-.826,0.558a5.229,5.229,0,0,1-.844.409,2.674,2.674,0,0,1-.982.209h-0.018a2.674,2.674,0,0,1-.982-0.209,5.188,5.188,0,0,1-.844-0.409q-0.317-.2-0.826-0.558-1.2-.844-4.437-2.941a4.664,4.664,0,0,1-.9-0.742v6.768a1.284,1.284,0,0,0,.42.963,1.407,1.407,0,0,0,1.009.4h13.142a1.407,1.407,0,0,0,1.009-.4,1.284,1.284,0,0,0,.42-0.963V90.869A4.871,4.871,0,0,1,492.107,91.61Z" transform="translate(-477 -87)"/>
</svg>
